<svg version="1.1" xmlns="http://www.w3.org/2000/svg" xmlns:xlink="http://www.w3.org/1999/xlink" width="800" height="800"><defs/><g transform="scale(2,2)"><g id="background-2078ba10"><rect fill="white" stroke="none" x="0" y="0" width="400" height="400" class="dcg-svg-background"/></g><g id="graphpaper-2078ba10"><g id="axis-2078ba10"><g id="yaxis-2078ba10"><title>Y axis</title><g><path fill="none" stroke="rgb(0,0,0)" class="dcg-svg-axis-line" paint-order="fill stroke markers" d=" M 0 0 L 0 400" stroke-opacity="0.9" stroke-miterlimit="10" stroke-width="2" stroke-dasharray=""/></g></g><g id="xaxis-2078ba10"><title>X axis</title><g><path fill="none" stroke="rgb(0,0,0)" class="dcg-svg-axis-line" paint-order="fill stroke markers" d=" M 0 400 L 400 400" stroke-opacity="0.9" stroke-miterlimit="10" stroke-width="2" stroke-dasharray=""/></g></g><g><g class="dcg-svg-axis-value"><text fill="none" stroke="#ffffff" font-family="Arial" font-size="17px" font-style="normal" font-weight="normal" text-decoration="normal" x="-9.727294921875" y="418.124" text-anchor="middle" stroke-miterlimit="2" stroke-width="3" stroke-dasharray="">0</text><text fill="#000000" stroke="none" font-family="Arial" font-size="17px" font-style="normal" font-weight="normal" text-decoration="normal" x="-9.727294921875" y="418.124" text-anchor="middle">0</text></g><g><path fill="none" stroke="rgb(0,0,0)" class="dcg-svg-tickmark" paint-order="fill stroke markers" d=" M 33 396 L 33 404 M 67 396 L 67 404 M 100 396 L 100 404 M 133 396 L 133 404 M 167 396 L 167 404 M 200 396 L 200 404 M 233 396 L 233 404 M 267 396 L 267 404 M 300 396 L 300 404 M 333 396 L 333 404 M 367 396 L 367 404 M 400 396 L 400 404 M -4 367 L 4 367 M -4 333 L 4 333 M -4 300 L 4 300 M -4 267 L 4 267 M -4 233 L 4 233 M -4 200 L 4 200 M -4 167 L 4 167 M -4 133 L 4 133 M -4 100 L 4 100 M -4 67 L 4 67 M -4 33 L 4 33 M -4 0 L 4 0" stroke-opacity="0.9" stroke-miterlimit="2" stroke-width="2" stroke-dasharray=""/></g><g class="dcg-svg-axis-value"><text fill="none" stroke="#ffffff" font-family="Arial" font-size="17px" font-style="normal" font-weight="normal" text-decoration="normal" x="33.333333333333336" y="393.124" text-anchor="middle" stroke-miterlimit="2" stroke-width="3" stroke-dasharray="">1</text><text fill="rgb(150,150,150)" stroke="none" font-family="Arial" font-size="17px" font-style="normal" font-weight="normal" text-decoration="normal" x="33.333333333333336" y="393.124" text-anchor="middle" fill-opacity="1">1</text></g><g class="dcg-svg-axis-value"><text fill="none" stroke="#ffffff" font-family="Arial" font-size="17px" font-style="normal" font-weight="normal" text-decoration="normal" x="66.66666666666667" y="393.124" text-anchor="middle" stroke-miterlimit="2" stroke-width="3" stroke-dasharray="">2</text><text fill="rgb(150,150,150)" stroke="none" font-family="Arial" font-size="17px" font-style="normal" font-weight="normal" text-decoration="normal" x="66.66666666666667" y="393.124" text-anchor="middle" fill-opacity="1">2</text></g><g class="dcg-svg-axis-value"><text fill="none" stroke="#ffffff" font-family="Arial" font-size="17px" font-style="normal" font-weight="normal" text-decoration="normal" x="100" y="393.124" text-anchor="middle" stroke-miterlimit="2" stroke-width="3" stroke-dasharray="">3</text><text fill="rgb(150,150,150)" stroke="none" font-family="Arial" font-size="17px" font-style="normal" font-weight="normal" text-decoration="normal" x="100" y="393.124" text-anchor="middle" fill-opacity="1">3</text></g><g class="dcg-svg-axis-value"><text fill="none" stroke="#ffffff" font-family="Arial" font-size="17px" font-style="normal" font-weight="normal" text-decoration="normal" x="133.33333333333334" y="393.124" text-anchor="middle" stroke-miterlimit="2" stroke-width="3" stroke-dasharray="">4</text><text fill="rgb(150,150,150)" stroke="none" font-family="Arial" font-size="17px" font-style="normal" font-weight="normal" text-decoration="normal" x="133.33333333333334" y="393.124" text-anchor="middle" fill-opacity="1">4</text></g><g class="dcg-svg-axis-value"><text fill="none" stroke="#ffffff" font-family="Arial" font-size="17px" font-style="normal" font-weight="normal" text-decoration="normal" x="166.66666666666669" y="393.124" text-anchor="middle" stroke-miterlimit="2" stroke-width="3" stroke-dasharray="">5</text><text fill="rgb(150,150,150)" stroke="none" font-family="Arial" font-size="17px" font-style="normal" font-weight="normal" text-decoration="normal" x="166.66666666666669" y="393.124" text-anchor="middle" fill-opacity="1">5</text></g><g class="dcg-svg-axis-value"><text fill="none" stroke="#ffffff" font-family="Arial" font-size="17px" font-style="normal" font-weight="normal" text-decoration="normal" x="200" y="393.124" text-anchor="middle" stroke-miterlimit="2" stroke-width="3" stroke-dasharray="">6</text><text fill="rgb(150,150,150)" stroke="none" font-family="Arial" font-size="17px" font-style="normal" font-weight="normal" text-decoration="normal" x="200" y="393.124" text-anchor="middle" fill-opacity="1">6</text></g><g class="dcg-svg-axis-value"><text fill="none" stroke="#ffffff" font-family="Arial" font-size="17px" font-style="normal" font-weight="normal" text-decoration="normal" x="233.33333333333334" y="393.124" text-anchor="middle" stroke-miterlimit="2" stroke-width="3" stroke-dasharray="">7</text><text fill="rgb(150,150,150)" stroke="none" font-family="Arial" font-size="17px" font-style="normal" font-weight="normal" text-decoration="normal" x="233.33333333333334" y="393.124" text-anchor="middle" fill-opacity="1">7</text></g><g class="dcg-svg-axis-value"><text fill="none" stroke="#ffffff" font-family="Arial" font-size="17px" font-style="normal" font-weight="normal" text-decoration="normal" x="266.6666666666667" y="393.124" text-anchor="middle" stroke-miterlimit="2" stroke-width="3" stroke-dasharray="">8</text><text fill="rgb(150,150,150)" stroke="none" font-family="Arial" font-size="17px" font-style="normal" font-weight="normal" text-decoration="normal" x="266.6666666666667" y="393.124" text-anchor="middle" fill-opacity="1">8</text></g><g class="dcg-svg-axis-value"><text fill="none" stroke="#ffffff" font-family="Arial" font-size="17px" font-style="normal" font-weight="normal" text-decoration="normal" x="300" y="393.124" text-anchor="middle" stroke-miterlimit="2" stroke-width="3" stroke-dasharray="">9</text><text fill="rgb(150,150,150)" stroke="none" font-family="Arial" font-size="17px" font-style="normal" font-weight="normal" text-decoration="normal" x="300" y="393.124" text-anchor="middle" fill-opacity="1">9</text></g><g class="dcg-svg-axis-value"><text fill="none" stroke="#ffffff" font-family="Arial" font-size="17px" font-style="normal" font-weight="normal" text-decoration="normal" x="333.33333333333337" y="393.124" text-anchor="middle" stroke-miterlimit="2" stroke-width="3" stroke-dasharray="">10</text><text fill="rgb(150,150,150)" stroke="none" font-family="Arial" font-size="17px" font-style="normal" font-weight="normal" text-decoration="normal" x="333.33333333333337" y="393.124" text-anchor="middle" fill-opacity="1">10</text></g><g class="dcg-svg-axis-value"><text fill="none" stroke="#ffffff" font-family="Arial" font-size="17px" font-style="normal" font-weight="normal" text-decoration="normal" x="366.6666666666667" y="393.124" text-anchor="middle" stroke-miterlimit="2" stroke-width="3" stroke-dasharray="">11</text><text fill="rgb(150,150,150)" stroke="none" font-family="Arial" font-size="17px" font-style="normal" font-weight="normal" text-decoration="normal" x="366.6666666666667" y="393.124" text-anchor="middle" fill-opacity="1">11</text></g><g class="dcg-svg-axis-value dcg-svg-offcenter-axis-value"><text fill="none" stroke="#ffffff" font-family="Arial" font-size="17px" font-style="normal" font-weight="normal" text-decoration="normal" x="387.54541015625" y="393.124" text-anchor="middle" stroke-miterlimit="2" stroke-width="3" stroke-dasharray="">12</text><text fill="rgb(150,150,150)" stroke="none" font-family="Arial" font-size="17px" font-style="normal" font-weight="normal" text-decoration="normal" x="387.54541015625" y="393.124" text-anchor="middle" fill-opacity="1">12</text></g><g class="dcg-svg-axis-value"><text fill="none" stroke="#ffffff" font-family="Arial" font-size="17px" font-style="normal" font-weight="normal" text-decoration="normal" x="7.727294921875" y="371.2906666666667" text-anchor="middle" stroke-miterlimit="2" stroke-width="3" stroke-dasharray="">1</text><text fill="rgb(150,150,150)" stroke="none" font-family="Arial" font-size="17px" font-style="normal" font-weight="normal" text-decoration="normal" x="7.727294921875" y="371.2906666666667" text-anchor="middle" fill-opacity="1">1</text></g><g class="dcg-svg-axis-value"><text fill="none" stroke="#ffffff" font-family="Arial" font-size="17px" font-style="normal" font-weight="normal" text-decoration="normal" x="7.727294921875" y="337.95733333333334" text-anchor="middle" stroke-miterlimit="2" stroke-width="3" stroke-dasharray="">2</text><text fill="rgb(150,150,150)" stroke="none" font-family="Arial" font-size="17px" font-style="normal" font-weight="normal" text-decoration="normal" x="7.727294921875" y="337.95733333333334" text-anchor="middle" fill-opacity="1">2</text></g><g class="dcg-svg-axis-value"><text fill="none" stroke="#ffffff" font-family="Arial" font-size="17px" font-style="normal" font-weight="normal" text-decoration="normal" x="7.727294921875" y="304.624" text-anchor="middle" stroke-miterlimit="2" stroke-width="3" stroke-dasharray="">3</text><text fill="rgb(150,150,150)" stroke="none" font-family="Arial" font-size="17px" font-style="normal" font-weight="normal" text-decoration="normal" x="7.727294921875" y="304.624" text-anchor="middle" fill-opacity="1">3</text></g><g class="dcg-svg-axis-value"><text fill="none" stroke="#ffffff" font-family="Arial" font-size="17px" font-style="normal" font-weight="normal" text-decoration="normal" x="7.727294921875" y="271.29066666666665" text-anchor="middle" stroke-miterlimit="2" stroke-width="3" stroke-dasharray="">4</text><text fill="rgb(150,150,150)" stroke="none" font-family="Arial" font-size="17px" font-style="normal" font-weight="normal" text-decoration="normal" x="7.727294921875" y="271.29066666666665" text-anchor="middle" fill-opacity="1">4</text></g><g class="dcg-svg-axis-value"><text fill="none" stroke="#ffffff" font-family="Arial" font-size="17px" font-style="normal" font-weight="normal" text-decoration="normal" x="7.727294921875" y="237.9573333333333" text-anchor="middle" stroke-miterlimit="2" stroke-width="3" stroke-dasharray="">5</text><text fill="rgb(150,150,150)" stroke="none" font-family="Arial" font-size="17px" font-style="normal" font-weight="normal" text-decoration="normal" x="7.727294921875" y="237.9573333333333" text-anchor="middle" fill-opacity="1">5</text></g><g class="dcg-svg-axis-value"><text fill="none" stroke="#ffffff" font-family="Arial" font-size="17px" font-style="normal" font-weight="normal" text-decoration="normal" x="7.727294921875" y="204.624" text-anchor="middle" stroke-miterlimit="2" stroke-width="3" stroke-dasharray="">6</text><text fill="rgb(150,150,150)" stroke="none" font-family="Arial" font-size="17px" font-style="normal" font-weight="normal" text-decoration="normal" x="7.727294921875" y="204.624" text-anchor="middle" fill-opacity="1">6</text></g><g class="dcg-svg-axis-value"><text fill="none" stroke="#ffffff" font-family="Arial" font-size="17px" font-style="normal" font-weight="normal" text-decoration="normal" x="7.727294921875" y="171.29066666666665" text-anchor="middle" stroke-miterlimit="2" stroke-width="3" stroke-dasharray="">7</text><text fill="rgb(150,150,150)" stroke="none" font-family="Arial" font-size="17px" font-style="normal" font-weight="normal" text-decoration="normal" x="7.727294921875" y="171.29066666666665" text-anchor="middle" fill-opacity="1">7</text></g><g class="dcg-svg-axis-value"><text fill="none" stroke="#ffffff" font-family="Arial" font-size="17px" font-style="normal" font-weight="normal" text-decoration="normal" x="7.727294921875" y="137.9573333333333" text-anchor="middle" stroke-miterlimit="2" stroke-width="3" stroke-dasharray="">8</text><text fill="rgb(150,150,150)" stroke="none" font-family="Arial" font-size="17px" font-style="normal" font-weight="normal" text-decoration="normal" x="7.727294921875" y="137.9573333333333" text-anchor="middle" fill-opacity="1">8</text></g><g class="dcg-svg-axis-value"><text fill="none" stroke="#ffffff" font-family="Arial" font-size="17px" font-style="normal" font-weight="normal" text-decoration="normal" x="7.727294921875" y="104.624" text-anchor="middle" stroke-miterlimit="2" stroke-width="3" stroke-dasharray="">9</text><text fill="rgb(150,150,150)" stroke="none" font-family="Arial" font-size="17px" font-style="normal" font-weight="normal" text-decoration="normal" x="7.727294921875" y="104.624" text-anchor="middle" fill-opacity="1">9</text></g><g class="dcg-svg-axis-value"><text fill="none" stroke="#ffffff" font-family="Arial" font-size="17px" font-style="normal" font-weight="normal" text-decoration="normal" x="12.45458984375" y="71.29066666666662" text-anchor="middle" stroke-miterlimit="2" stroke-width="3" stroke-dasharray="">10</text><text fill="rgb(150,150,150)" stroke="none" font-family="Arial" font-size="17px" font-style="normal" font-weight="normal" text-decoration="normal" x="12.45458984375" y="71.29066666666662" text-anchor="middle" fill-opacity="1">10</text></g><g class="dcg-svg-axis-value"><text fill="none" stroke="#ffffff" font-family="Arial" font-size="17px" font-style="normal" font-weight="normal" text-decoration="normal" x="11.82373046875" y="37.95733333333332" text-anchor="middle" stroke-miterlimit="2" stroke-width="3" stroke-dasharray="">11</text><text fill="rgb(150,150,150)" stroke="none" font-family="Arial" font-size="17px" font-style="normal" font-weight="normal" text-decoration="normal" x="11.82373046875" y="37.95733333333332" text-anchor="middle" fill-opacity="1">11</text></g><g class="dcg-svg-axis-value dcg-svg-offcenter-axis-value"><text fill="none" stroke="#ffffff" font-family="Arial" font-size="17px" font-style="normal" font-weight="normal" text-decoration="normal" x="12.45458984375" y="16.124000000000002" text-anchor="middle" stroke-miterlimit="2" stroke-width="3" stroke-dasharray="">12</text><text fill="rgb(150,150,150)" stroke="none" font-family="Arial" font-size="17px" font-style="normal" font-weight="normal" text-decoration="normal" x="12.45458984375" y="16.124000000000002" text-anchor="middle" fill-opacity="1">12</text></g></g></g></g><g id="expressions-2078ba10"><g id="sketch-2078ba10"><title>Expression 1</title><path fill="#348543" stroke="none" paint-order="stroke fill markers" d="" fill-opacity="0.4"/><g><path fill="none" stroke="#348543" class="dcg-svg-curve" paint-order="fill stroke markers" d=" M 0 400 L 0 400 L 400 0" stroke-linecap="round" stroke-linejoin="round" stroke-miterlimit="10" stroke-width="3.5" stroke-dasharray=""/></g></g><g id="sketch-2078ba10"><title>Expression 2</title><path fill="#2d70b3" stroke="none" paint-order="stroke fill markers" d="" fill-opacity="0.4"/><g><path fill="none" stroke="#2d70b3" class="dcg-svg-curve" paint-order="fill stroke markers" d=" M 0 400 L 0 400 L 271 -6.5" stroke-linecap="round" stroke-linejoin="round" stroke-miterlimit="10" stroke-width="3.5" stroke-dasharray=""/></g></g><g id="sketch-2078ba10"><title>Expression 3</title><path fill="#fa7e19" stroke="none" paint-order="stroke fill markers" d="" fill-opacity="0.4"/><g><path fill="none" stroke="#fa7e19" class="dcg-svg-curve" paint-order="fill stroke markers" d=" M 0 400 L 0 400 L 400 133.33333333333331" stroke-linecap="round" stroke-linejoin="round" stroke-miterlimit="10" stroke-width="3.5" stroke-dasharray=""/></g></g><g id="sketch-2078ba10"><title>f(x)=x</title><path fill="#348543" stroke="none" class="dcg-svg-point" paint-order="stroke fill markers" d=" M 138.58333333333334 266.66666666666663 A 5.25 5.25 0 1 1 138.58333070833356 266.66141666754163 Z"/></g><g id="sketch-2078ba10"><title>f(x)=(2/3)x</title><path fill="#fa7e19" stroke="none" class="dcg-svg-point" paint-order="stroke fill markers" d=" M 105.25 333.3333333333333 A 5.25 5.25 0 1 1 105.24999737500022 333.3280833342083 Z"/></g><g id="sketch-2078ba10"><title>f(x)=(3/2)x</title><path fill="#2d70b3" stroke="none" class="dcg-svg-point" paint-order="stroke fill markers" d=" M 71.91666666666667 300 A 5.25 5.25 0 1 1 71.91666404166689 299.994750000875 Z"/></g><g id="sketch-2078ba10"><title>Expression 7</title><path fill="#6042a6" stroke="none" paint-order="stroke fill markers" d="" fill-opacity="0.4"/><g><path fill="none" stroke="#6042a6" class="dcg-svg-curve" paint-order="fill stroke markers" d=" M 0 400 L 0 400 L 6.347656250000001 377.54454626418254 L 9.66796875 366.5814956202312 L 12.5 357.9623203989888 L 14.941406250000002 351.20933563293994 L 17.1875 345.6350201447924 L 19.23828125 341.13292053219993 L 21.19140625 337.4018779612823 L 23.046875 334.3831945145645 L 24.90234375 331.891576012447 L 26.660156250000004 330.02449666012797 L 28.222656250000004 328.7690733779924 L 29.687500000000004 327.93526287233567 L 31.054687500000004 327.4523307350087 L 32.421875 327.24845356345617 L 33.7890625 327.3158076846115 L 35.15625 327.64474529911286 L 36.62109375 328.27446189350024 L 38.18359375 329.24442485180094 L 39.94140625 330.67636638361864 L 41.89453125 332.6487206551299 L 44.140625 335.34505274293895 L 46.875 339.12033803001356 L 50.58593750000001 344.8105218742094 L 58.49609375000001 357.1000686783883 L 61.32812500000001 360.8802513551859 L 63.67187500000001 363.53266585060027 L 65.625 365.3366108473766 L 67.3828125 366.59838856044786 L 68.9453125 367.4038843389642 L 70.41015625 367.8694555933138 L 71.77734375 368.0376381132454 L 73.14453125 367.93805080973834 L 74.51171875 367.56216862350766 L 75.87890625 366.90332467599626 L 77.34375 365.8780463884937 L 78.90625 364.41661041227997 L 80.56640625 362.4469704001531 L 82.421875 359.7412736574397 L 84.27734375 356.5135483993424 L 86.23046875 352.5707467027734 L 88.28125 347.8585678007622 L 90.52734375 342.07227839797787 L 92.96875 335.1147062234101 L 95.703125 326.61317608281405 L 98.92578125 315.8369520589981 L 103.32031250000001 300.31396428877144 L 111.32812500000001 271.93678983999234 L 114.64843750000001 261.03698405180114 L 117.38281250000001 252.77072754433047 L 119.82421875000001 246.0634503786083 L 122.07031250000001 240.53618779301516 L 124.12109375000001 236.0804937201637 L 126.07421875000001 232.396042224119 L 127.92968750000001 229.42319352852314 L 129.78515625 226.97836546020457 L 131.54296875 225.15597050761303 L 133.10546875 223.94014883260115 L 134.5703125 223.14304153324943 L 135.9375 222.69374036561686 L 137.3046875 222.52265872603098 L 138.671875 222.62175237988285 L 140.0390625 222.98116006823676 L 141.50390625 223.64188184074848 L 143.06640625 224.6427821911333 L 144.82421875 226.10656386857082 L 146.77734375 228.11020216601278 L 149.12109375 230.9641541017184 L 151.953125 234.92714205332348 L 155.859375 240.9707887918818 L 162.890625 251.91370165823753 L 165.8203125 255.87794537406455 L 168.26171875 258.6790862641393 L 170.3125 260.59037904703723 L 172.0703125 261.8587851343495 L 173.6328125 262.6706613509904 L 175.09765625 263.1425800821427 L 176.46484375 263.3169621810484 L 177.83203125 263.2237975763836 L 179.19921875 262.8545180139441 L 180.56640625 262.2024122101942 L 182.03125 261.184452250003 L 183.59375 259.73087295199394 L 185.25390625 257.7695621245364 L 187.109375 255.0730522737648 L 188.96484375 251.85427521605564 L 190.91796875 247.9205130816629 L 192.96875 243.21727341868655 L 195.21484375 237.43996829738177 L 197.65625 230.49102158040301 L 200.39062500000003 221.99752147765335 L 203.61328125000003 211.22827096038003 L 208.00781250000003 195.71002528122136 L 216.11328125000003 166.9949122613861 L 219.43359375000003 156.11126330994753 L 222.16796875000003 147.86252279146908 L 224.60937500000003 141.1736935867956 L 226.85546875000003 135.66539207715994 L 228.90625000000003 131.22837585763205 L 230.85937500000003 127.56265851680166 L 232.71484375000003 124.6082241044939 L 234.57031250000003 122.18217944101792 L 236.32812500000003 120.37770905328603 L 237.89062500000003 119.17776218393277 L 239.35546875000003 118.39535851241124 L 240.72265625000003 117.95952197662984 L 242.08984375000003 117.80156239377862 L 243.45703125000003 117.91334727877984 L 244.82421875000003 118.28493001968326 L 246.28906250000003 118.9580307438672 L 247.85156250000003 119.97127108163812 L 249.60937500000003 121.44773713726977 L 251.56250000000003 123.46381698220489 L 253.90625000000003 126.33017288432364 L 256.73828125 130.30414851712266 L 260.64453125 136.35524389621997 L 267.578125 147.14735660097745 L 270.5078125 151.11781235980996 L 272.94921875 153.92585018147423 L 275 155.84403150266198 L 276.7578125 157.11905462977757 L 278.3203125 157.93730239152407 L 279.78515625 158.41556134550427 L 281.15234375 158.5961372495698 L 282.51953125 158.5093905720058 L 283.88671875 158.1467098957803 L 285.25390625 157.50133955751582 L 286.71875 156.49069625087188 L 288.28125 155.04497322311448 L 289.94140625 153.09199270827446 L 291.796875 150.40467289949063 L 293.65234375 147.19484914832182 L 295.60546875 143.27013399440892 L 297.65625 138.57584350501878 L 299.90234375 132.80753589103756 L 302.34375 125.86723151424718 L 305.078125 117.38178301964422 L 308.30078125 106.61953427402364 L 312.6953125 91.10607234883435 L 320.80078125 62.384673143467126 L 324.12109375 51.49304124685386 L 326.85546875 43.23565140604222 L 329.296875 36.53771567790159 L 331.54296875 31.02005647764821 L 333.59375 26.573823935820485 L 335.546875 22.898863801542916 L 337.40234375 19.935345534301916 L 339.2578125 17.500035985691227 L 341.015625 15.68672529234641 L 342.578125 14.478949825583697 L 344.04296875 13.689295785426452 L 345.41015625 13.246820420426786 L 346.77734375 13.082391497728906 L 348.14453125 13.187920040851736 L 349.51171875 13.553501513955098 L 350.9765625 14.220501177519054 L 352.5390625 15.22766051397491 L 354.296875 16.697876985508685 L 356.25 18.70782842233251 L 358.59375 21.568076838984894 L 361.42578125 25.536646555206346 L 365.33203125 31.584087501667852 L 372.265625 42.38095639071139 L 375.1953125 46.35759834866519 L 377.63671875 49.172513440584396 L 379.6875 51.09756843465908 L 381.4453125 52.37919724235695 L 383.0078125 53.203807632326175 L 384.47265625 53.688399531412756 L 385.83984375 53.87516344362524 L 387.20703125 53.79482989738267 L 388.57421875 53.43874434507859 L 389.94140625 52.800106768796354 L 391.40625 51.7967784145315 L 392.87109375 50.45993172844783 L 394.53125 48.5405133338503 L 396.38671875 45.89023871609544 L 398.2421875 42.71652649835761 L 400 39.24172902028698" stroke-linecap="round" stroke-linejoin="round" stroke-miterlimit="10" stroke-width="3.5" stroke-dasharray=""/></g></g><g id="sketch-2078ba10"><title>f(x)=???</title><path fill="#6042a6" stroke="none" class="dcg-svg-point" paint-order="stroke fill markers" d=" M 205.25 223.33333333333331 A 5.25 5.25 0 1 1 205.24999737500022 223.32808333420832 Z"/></g></g><g id="labels-2078ba10"><g transform="rotate(0,0,0) translate(143,256)"><g class="dcg-svg-label"><text fill="none" stroke="#FFF" font-family="arial, sans-serif" font-size="18.7px" font-style="normal" font-weight="400" text-decoration="normal" x="0" y="16.7364" text-anchor="start" stroke-linecap="round" stroke-linejoin="round" stroke-miterlimit="2" stroke-width="3" stroke-dasharray="">f(x)=x</text><text fill="rgb(52, 133, 67)" stroke="none" font-family="arial, sans-serif" font-size="18.7px" font-style="normal" font-weight="400" text-decoration="normal" x="0" y="16.7364" text-anchor="start">f(x)=x</text></g></g><g transform="rotate(0,0,0) translate(105,338)"><g class="dcg-svg-label"><text fill="none" stroke="#FFF" font-family="arial, sans-serif" font-size="18.7px" font-style="normal" font-weight="400" text-decoration="normal" x="0" y="16.7364" text-anchor="start" stroke-linecap="round" stroke-linejoin="round" stroke-miterlimit="2" stroke-width="3" stroke-dasharray="">f(x)=(2/3)x</text><text fill="rgb(250, 126, 25)" stroke="none" font-family="arial, sans-serif" font-size="18.7px" font-style="normal" font-weight="400" text-decoration="normal" x="0" y="16.7364" text-anchor="start">f(x)=(2/3)x</text></g></g><g transform="rotate(0,0,0) translate(24,271)"><g class="dcg-svg-label"><text fill="none" stroke="#FFF" font-family="arial, sans-serif" font-size="18.7px" font-style="normal" font-weight="400" text-decoration="normal" x="0" y="16.7364" text-anchor="start" stroke-linecap="round" stroke-linejoin="round" stroke-miterlimit="2" stroke-width="3" stroke-dasharray="">f(x)=(3/2)x</text><text fill="rgb(45, 112, 179)" stroke="none" font-family="arial, sans-serif" font-size="18.7px" font-style="normal" font-weight="400" text-decoration="normal" x="0" y="16.7364" text-anchor="start">f(x)=(3/2)x</text></g></g><g transform="rotate(0,0,0) translate(205,196)"><g class="dcg-svg-label"><text fill="none" stroke="#FFF" font-family="arial, sans-serif" font-size="18.7px" font-style="normal" font-weight="400" text-decoration="normal" x="0" y="16.7364" text-anchor="start" stroke-linecap="round" stroke-linejoin="round" stroke-miterlimit="2" stroke-width="3" stroke-dasharray="">f(x)=???</text><text fill="rgb(96, 66, 166)" stroke="none" font-family="arial, sans-serif" font-size="18.7px" font-style="normal" font-weight="400" text-decoration="normal" x="0" y="16.7364" text-anchor="start">f(x)=???</text></g></g></g><g id="labels-2078ba10"/></g></svg>